<svg width="582" height="756" viewBox="0 0 582 756" fill="none" xmlns="http://www.w3.org/2000/svg">
<path d="M236.069 380.988C254.104 355.78 274.374 333.01 296.878 312.677C321.31 290.557 346.434 271.893 372.25 256.685C398.526 241.017 423.65 229.265 447.621 221.431C471.593 213.136 492.798 208.989 511.238 208.989C526.912 208.989 539.358 212.215 548.578 218.666C558.259 225.118 563.099 235.256 563.099 249.081C563.099 255.072 562.177 261.063 560.333 267.054C556.646 282.722 550.653 295.165 542.355 304.382C534.518 313.598 528.756 318.207 525.068 318.207C522.763 318.207 521.61 317.055 521.61 314.75C521.61 312.446 523.454 307.607 527.142 300.234C534.057 287.791 537.514 276.962 537.514 267.745C537.514 256.224 532.905 247.699 523.685 242.169C514.465 236.178 502.249 233.183 487.036 233.183C467.674 233.183 445.316 238.021 419.962 247.699C394.608 257.376 368.792 272.123 342.516 291.939C316.239 311.294 292.037 336.179 269.91 366.594C248.243 396.549 231.417 432.263 219.431 473.738C228.19 472.817 237.179 471.895 246.399 470.973C255.619 469.591 263.917 467.978 271.293 466.135C332.143 452.77 378.012 443.323 408.898 437.793C440.246 431.802 459.838 428.807 467.674 428.807C474.589 428.807 474.128 430.42 466.291 433.646C458.455 436.872 445.086 441.48 426.185 447.471C407.746 453.001 385.157 459.222 358.42 466.135C331.682 472.586 302.64 479.268 271.293 486.181C263.456 488.024 254.236 490.329 243.633 493.094C233.491 495.859 223.119 498.393 212.516 500.697C209.751 520.513 208.368 539.177 208.368 556.689C208.368 598.164 215.282 631.805 229.112 657.612C242.942 682.958 261.151 701.391 283.739 712.912C306.328 724.894 330.76 730.884 357.037 730.884C383.774 730.884 410.281 725.585 436.558 714.986C463.295 704.386 487.497 689.64 509.164 670.745C530.83 651.39 547.195 629.04 558.259 603.694C562.408 594.938 566.096 590.56 569.323 590.56C571.628 590.56 572.78 592.404 572.78 596.09C572.78 598.394 572.089 601.62 570.706 605.768C563.791 626.044 552.497 644.939 536.823 662.45C521.149 679.501 502.71 694.248 481.504 706.691C460.299 719.594 437.71 729.502 413.739 736.414C389.767 743.327 366.026 746.783 342.516 746.783C313.473 746.783 286.275 740.792 260.92 728.811C235.566 716.829 215.052 697.474 199.378 670.745C184.166 644.017 176.559 608.763 176.559 564.984C176.559 555.306 176.79 545.398 177.251 535.26C178.173 524.661 179.556 513.831 181.4 502.771C178.173 502.31 174.946 502.31 171.719 502.771H163.421C159.272 502.771 156.045 501.849 153.74 500.006C151.435 498.163 150.052 494.246 149.591 488.255C149.591 481.803 150.974 475.812 153.74 470.282C156.967 464.752 160.194 463.831 163.421 467.517C168.476 471.652 177.653 474.183 190.953 475.112C192.446 465.847 194.425 456.415 197.304 446.78C208.368 410.834 220.353 374.889 233.261 338.944C246.63 302.538 259.537 267.515 271.984 233.874C284.892 199.772 296.647 168.435 307.25 139.863C317.853 110.831 326.15 86.4066 332.143 66.5907C335.37 56.4523 336.984 48.1573 336.984 41.7056C336.984 33.4105 334.218 29.263 328.686 29.263C321.771 29.263 311.168 35.9451 296.878 49.3093C282.587 62.6736 266.222 80.8766 247.782 103.918C229.343 126.96 210.211 153.689 190.389 184.104C170.566 214.519 151.666 246.777 133.687 280.879C115.709 314.981 100.035 349.543 86.6661 384.567C73.2974 419.59 63.6166 453.462 57.6238 486.181C57.1628 489.407 56.7018 494.476 56.2408 501.389C55.7798 508.301 54.6273 514.522 52.7834 520.052C51.4004 525.582 48.404 528.347 43.7941 528.347C33.6523 527.887 26.5069 522.817 22.358 513.14C18.6701 503.462 16.1347 494.476 14.7517 486.181C11.0638 461.757 9.2198 433.185 9.2198 400.466C9.2198 374.198 10.3723 347.009 12.6772 318.898C14.9822 290.787 18.2091 264.059 22.358 238.713C26.5069 213.367 31.3473 191.938 36.8792 174.426C40.5671 163.366 45.638 153.458 52.0919 144.702C59.0067 135.486 65.2301 130.877 70.762 130.877C73.9889 130.877 76.5244 133.181 78.3683 137.79C80.6733 142.398 81.5953 150.693 81.1343 162.675C81.1343 167.744 78.8293 177.421 74.2194 191.707C70.0705 205.532 64.9996 223.505 59.0067 245.625C53.4749 267.745 48.6345 293.322 44.4855 322.354C40.3366 351.387 38.2622 383.415 38.2622 418.438C38.2622 435.028 38.9537 452.31 40.3366 470.282C44.4855 457.379 50.7089 439.406 59.0067 416.365C67.7655 393.323 78.3683 367.286 90.8151 338.253C103.723 309.22 118.013 279.266 133.687 248.39C149.822 217.053 167.109 186.638 185.549 157.145C203.988 127.651 223.35 100.923 243.633 76.9594C263.917 52.996 284.661 33.8714 305.867 19.5855C316.47 12.673 327.533 9.2167 339.058 9.2167C351.505 9.2167 362.108 13.1338 370.867 20.968C380.086 28.8022 384.235 39.8622 383.313 54.1481C382.391 73.5032 377.551 93.0887 368.792 112.905C360.494 132.26 350.583 151.154 339.058 169.587C327.994 188.021 317.622 205.763 307.941 222.814C294.573 247.238 280.973 274.427 267.144 304.382C256.164 328.984 245.805 354.52 236.069 380.988Z" fill="black"/>
<path fill-rule="evenodd" clip-rule="evenodd" d="M342.516 291.939C316.239 311.294 292.037 336.179 269.91 366.594C249.928 394.22 234.063 426.745 222.315 464.169C221.324 467.324 220.363 470.514 219.431 473.738C222.703 473.394 226.007 473.05 229.343 472.706C234.938 472.128 240.623 471.551 246.399 470.973C255.619 469.591 263.917 467.978 271.293 466.135C332.143 452.77 378.012 443.323 408.898 437.793C424.155 434.878 436.628 432.671 446.316 431.175C453.55 430.057 459.231 429.335 463.36 429.009C463.701 428.982 464.031 428.958 464.352 428.936C465.628 428.85 466.736 428.807 467.674 428.807C474.157 428.807 474.157 430.225 467.674 433.06C467.242 433.249 466.781 433.444 466.291 433.646C465.738 433.874 465.156 434.109 464.547 434.35C460.454 435.975 455.114 437.912 448.526 440.16C442.221 442.311 434.775 444.748 426.185 447.471C407.746 453.001 385.157 459.222 358.42 466.135C331.682 472.586 302.64 479.268 271.293 486.181C263.456 488.024 254.236 490.329 243.633 493.094C233.491 495.859 223.119 498.393 212.516 500.697C209.751 520.513 208.368 539.177 208.368 556.689C208.368 598.164 215.282 631.805 229.112 657.612C242.942 682.958 261.151 701.391 283.739 712.912C306.328 724.894 330.76 730.884 357.037 730.884C383.774 730.884 410.281 725.585 436.558 714.986C463.295 704.386 487.497 689.64 509.164 670.745C530.83 651.39 547.195 629.04 558.259 603.694C562.408 594.938 566.096 590.56 569.323 590.56C571.628 590.56 572.78 592.404 572.78 596.09C572.78 598.394 572.089 601.62 570.706 605.768C563.791 626.044 552.497 644.939 536.823 662.45C521.149 679.501 502.71 694.248 481.504 706.691C460.299 719.594 437.71 729.502 413.739 736.414C389.767 743.327 366.026 746.783 342.516 746.783C313.473 746.783 286.275 740.792 260.92 728.811C235.566 716.829 215.052 697.474 199.378 670.745C184.166 644.017 176.559 608.763 176.559 564.984C176.559 555.306 176.79 545.398 177.251 535.26C177.918 527.587 178.827 519.793 179.978 511.879C180.417 508.86 180.891 505.825 181.4 502.771C178.287 502.327 175.175 502.311 172.063 502.724C171.948 502.739 171.834 502.755 171.719 502.771H163.421C159.272 502.771 156.045 501.849 153.74 500.006C151.435 498.163 150.052 494.246 149.591 488.255C149.591 481.803 150.974 475.812 153.74 470.282C156.967 464.752 160.194 463.831 163.421 467.517C168.476 471.652 177.653 474.183 190.953 475.112C192.446 465.847 194.425 456.415 197.304 446.78C208.368 410.834 220.353 374.889 233.261 338.944C246.63 302.538 259.537 267.515 271.984 233.874C284.892 199.772 296.647 168.435 307.25 139.863C317.853 110.831 326.15 86.4066 332.143 66.5907C335.37 56.4523 336.984 48.1573 336.984 41.7056C336.984 33.4105 334.218 29.263 328.686 29.263C321.771 29.263 311.168 35.9451 296.878 49.3093C282.587 62.6736 266.222 80.8766 247.782 103.918C229.343 126.96 210.211 153.689 190.389 184.104C170.566 214.519 151.666 246.777 133.687 280.879C115.709 314.981 100.035 349.543 86.6661 384.567C73.2974 419.59 63.6166 453.462 57.6238 486.181C57.1628 489.407 56.7018 494.476 56.2408 501.389C55.7798 508.301 54.6273 514.522 52.7834 520.052C51.4004 525.582 48.404 528.347 43.7941 528.347C33.6523 527.887 26.5069 522.817 22.358 513.14C18.6701 503.462 16.1347 494.476 14.7517 486.181C11.0638 461.757 9.2198 433.185 9.2198 400.466C9.2198 374.198 10.3723 347.009 12.6772 318.898C14.9822 290.787 18.2091 264.059 22.358 238.713C26.5069 213.367 31.3473 191.938 36.8792 174.426C40.5671 163.366 45.638 153.458 52.0919 144.702C59.0067 135.486 65.2301 130.877 70.762 130.877C73.9889 130.877 76.5244 133.181 78.3683 137.79C80.6733 142.398 81.5953 150.693 81.1343 162.675C81.1343 167.744 78.8293 177.421 74.2194 191.707C70.0705 205.532 64.9996 223.505 59.0067 245.625C53.4749 267.745 48.6345 293.322 44.4855 322.354C40.3366 351.387 38.2622 383.415 38.2622 418.438C38.2622 427.324 38.4605 436.408 38.8573 445.69C39.2012 453.738 39.6944 461.936 40.3366 470.282C42.4177 463.81 45.0206 456.063 48.1454 447.04C51.2505 438.074 54.871 427.849 59.0067 416.365C67.7655 393.323 78.3683 367.286 90.8151 338.253C103.723 309.22 118.013 279.266 133.687 248.39C149.822 217.053 167.109 186.638 185.549 157.145C203.988 127.651 223.35 100.923 243.633 76.9594C263.917 52.996 284.661 33.8714 305.867 19.5855C316.47 12.673 327.533 9.2167 339.058 9.2167C351.505 9.2167 362.108 13.1338 370.867 20.968C380.086 28.8022 384.235 39.8622 383.313 54.1481C382.391 73.5032 377.551 93.0887 368.792 112.905C360.494 132.26 350.583 151.154 339.058 169.587C327.994 188.021 317.622 205.763 307.941 222.814C294.573 247.238 280.973 274.427 267.144 304.382C260.371 319.556 253.835 335.086 247.536 350.97C243.622 360.839 239.8 370.845 236.069 380.988C242.302 372.275 248.802 363.855 255.569 355.725C268.382 340.332 282.151 325.982 296.878 312.677C321.31 290.557 346.434 271.893 372.25 256.685C398.526 241.017 423.65 229.265 447.621 221.431C471.593 213.136 492.798 208.989 511.238 208.989C526.912 208.989 539.358 212.215 548.578 218.666C558.259 225.118 563.099 235.256 563.099 249.081C563.099 255.072 562.177 261.063 560.333 267.054C556.646 282.722 550.653 295.165 542.355 304.382C534.518 313.598 528.756 318.207 525.068 318.207C522.763 318.207 521.61 317.055 521.61 314.75C521.61 312.446 523.454 307.607 527.142 300.234C534.057 287.791 537.514 276.962 537.514 267.745C537.514 256.224 532.905 247.699 523.685 242.169C514.465 236.178 502.249 233.183 487.036 233.183C467.674 233.183 445.316 238.021 419.962 247.699C394.608 257.376 368.792 272.123 342.516 291.939ZM549.297 310.448C545.237 315.216 541.43 319.137 537.915 321.947C534.778 324.456 530.268 327.423 525.068 327.423C522.494 327.423 518.87 326.774 515.955 323.86C513.04 320.946 512.391 317.323 512.391 314.75C512.391 311.765 513.43 308.598 514.377 306.112C515.453 303.29 516.985 299.933 518.896 296.112L518.985 295.933L519.083 295.758C525.614 284.005 528.295 274.768 528.295 267.745C528.295 259.18 525.15 253.796 518.941 250.072L518.799 249.987L518.66 249.897C511.407 245.183 501.125 242.399 487.036 242.399C469.152 242.399 447.945 246.884 423.251 256.309C398.856 265.62 373.794 279.896 348.068 299.297L348.027 299.328L347.985 299.359C322.577 318.074 299.024 342.247 277.371 372.009C258.725 397.79 243.682 428.129 232.323 463.134C236.582 462.698 240.892 462.262 245.254 461.825C254.154 460.485 262.081 458.937 269.057 457.193L269.185 457.161L269.314 457.133C330.158 443.77 376.151 434.294 407.22 428.73C438.203 422.81 458.768 419.59 467.674 419.59C469.53 419.59 471.749 419.677 473.714 420.168C474.562 420.38 476.574 420.942 478.413 422.551C479.453 423.461 480.627 424.874 481.279 426.872C481.951 428.929 481.846 430.918 481.38 432.549C480.576 435.36 478.743 437.043 478.068 437.633C477.163 438.425 476.206 439.038 475.432 439.49C473.855 440.41 471.905 441.303 469.802 442.168C461.575 445.555 447.881 450.263 428.972 456.257L428.904 456.278L428.835 456.299C410.245 461.874 387.536 468.127 360.728 475.058L360.656 475.077L360.583 475.094C333.796 481.558 304.714 488.249 273.34 495.168C265.622 496.984 256.515 499.26 246.01 501.999C237.755 504.249 229.354 506.347 220.808 508.294C218.655 525.388 217.587 541.516 217.587 556.689C217.587 597.223 224.358 629.205 237.223 653.229C250.289 677.163 267.226 694.143 287.93 704.702L287.995 704.736L288.061 704.77C309.281 716.026 332.224 721.668 357.037 721.668C382.522 721.668 407.861 716.622 433.108 706.439L433.159 706.418C458.906 696.211 482.193 682.026 503.06 663.838C523.768 645.329 539.309 624.062 549.809 600.008L549.866 599.877L549.927 599.748C552.141 595.075 554.498 590.977 557.084 587.907C559.399 585.159 563.487 581.343 569.323 581.343C573.424 581.343 577.355 583.252 579.734 587.058C581.662 590.142 582 593.585 582 596.09C582 599.913 580.921 604.28 579.452 608.682L579.433 608.742C572.081 630.298 560.112 650.252 543.694 668.596L543.653 668.642L543.612 668.687C527.298 686.434 508.152 701.734 486.232 714.604C464.343 727.915 441.023 738.139 416.294 745.27C391.543 752.407 366.942 756 342.516 756C312.16 756 283.611 749.728 256.98 737.143C229.774 724.286 207.933 703.559 191.424 675.407L191.394 675.355L191.365 675.303C175.096 646.72 167.339 609.723 167.339 564.984C167.339 555.16 167.573 545.112 168.04 534.841L168.049 534.651L168.066 534.461C168.708 527.071 169.569 519.58 170.648 511.988H163.421C158.012 511.988 152.47 510.794 147.981 507.203C145.042 504.853 143.322 501.703 142.28 498.753C141.229 495.777 140.666 492.438 140.399 488.962L140.371 488.609V488.255C140.371 480.436 142.06 473.026 145.494 466.16L145.627 465.895L145.776 465.638C147.627 462.466 150.807 458.078 156.048 456.581C162.062 454.863 166.81 457.784 169.657 460.69C171.844 462.275 176.116 463.939 183.375 465.038C184.701 458.208 186.348 451.242 188.47 444.142L188.481 444.105L188.492 444.069C199.598 407.986 211.628 371.907 224.583 335.83L224.595 335.799L224.606 335.768C237.977 299.356 250.887 264.325 263.337 230.677L263.349 230.644L263.361 230.612C276.26 196.534 288.005 165.224 298.597 136.68C309.163 107.75 317.395 83.5091 323.318 63.9235L323.337 63.8597L323.358 63.7962C326.458 54.0558 327.764 46.7941 327.764 41.7056C327.764 40.378 327.67 39.3805 327.543 38.6586C326.22 38.9934 323.927 39.8893 320.465 42.0712C315.85 44.9793 310.104 49.5612 303.176 56.04C289.327 68.9914 273.269 86.8249 254.982 109.676C236.766 132.438 217.809 158.916 198.114 189.135C178.456 219.298 159.698 251.31 141.844 285.176C124.033 318.96 108.513 353.185 95.2801 387.853C82.1129 422.348 72.6086 455.614 66.7265 487.657C66.3244 490.536 65.8898 495.26 65.4402 502.002C64.9448 509.43 63.7057 516.336 61.6352 522.649C60.6554 526.372 58.8972 530.144 55.7524 533.046C52.3261 536.208 48.0912 537.564 43.7941 537.564H43.5846L43.3754 537.555C36.8238 537.257 30.7257 535.429 25.4928 531.716C20.2796 528.018 16.4908 522.852 13.8837 516.771L13.8094 516.597L13.7422 516.421C9.88445 506.298 7.16076 496.714 5.65733 487.696L5.6457 487.627L5.63515 487.557C1.86055 462.558 0 433.507 0 400.466C0 373.929 1.16424 346.488 3.48824 318.145C5.81145 289.811 9.06675 262.836 13.2592 237.224C17.4537 211.6 22.3818 189.712 28.0874 171.651L28.1094 171.581L28.1325 171.511C32.1036 159.602 37.6035 148.821 44.6694 139.235L44.6926 139.203L44.716 139.172C48.4745 134.163 52.3716 129.953 56.4577 126.927C60.5384 123.906 65.3681 121.66 70.762 121.66C79.4767 121.66 84.3619 128.168 86.7893 134.024C88.5231 137.644 89.4523 141.955 89.9519 146.449C90.4756 151.161 90.5866 156.665 90.3533 162.869C90.3261 166.484 89.5456 170.953 88.3746 175.87C87.1512 181.006 85.3548 187.215 83.0233 194.446C78.9182 208.13 73.8883 225.955 67.9296 247.947C62.5016 269.668 57.7233 294.893 53.6127 323.658C49.5359 352.185 47.482 383.77 47.482 418.438C47.482 419.346 47.4841 420.256 47.4883 421.168C48.4079 418.595 49.3558 415.953 50.3319 413.243L50.3594 413.166L50.3882 413.091C59.2031 389.901 69.8567 363.742 82.3407 334.622L82.3649 334.566L82.3899 334.51C95.3671 305.321 109.727 275.224 125.465 244.219L125.489 244.172C141.74 212.611 159.153 181.973 177.73 152.26C196.379 122.432 215.998 95.3403 236.595 71.006C257.307 46.5366 278.667 26.7954 300.714 11.9424L300.772 11.9035L300.831 11.8655C312.778 4.07615 325.57 0 339.058 0C353.588 0 366.389 4.63308 376.928 14.0224C388.707 24.0813 393.566 38.1498 392.519 54.6629C391.529 75.2377 386.385 95.8928 377.245 116.584C368.771 136.345 358.66 155.617 346.921 174.4C335.922 192.728 325.613 210.361 315.995 227.301C302.762 251.481 289.276 278.44 275.539 308.191C272.342 315.355 269.198 322.6 266.107 329.926C273.989 321.558 282.185 313.529 290.695 305.839C290.693 305.841 290.691 305.843 290.689 305.845M290.695 305.839C315.536 283.35 341.15 264.31 367.544 248.759C394.253 232.834 419.969 220.779 444.68 212.696C469.254 204.199 491.487 199.772 511.238 199.772C528.041 199.772 542.522 203.212 553.781 211.056C566.477 219.561 572.319 232.882 572.319 249.081C572.319 255.931 571.279 262.733 569.238 269.463C565.302 286.019 558.79 299.862 549.297 310.448" fill="black"/>
</svg>
